<?xml version="1.0" encoding="UTF-8" standalone="no"?>
<!DOCTYPE svg PUBLIC "-//W3C//DTD SVG 1.1//EN"
 "http://www.w3.org/Graphics/SVG/1.1/DTD/svg11.dtd">
<!-- Generated by graphviz version 14.0.1 (20251006.0113)
 -->
<!-- Pages: 1 -->
<svg width="892pt" height="696pt"
 viewBox="0.00 0.00 892.00 696.00" xmlns="http://www.w3.org/2000/svg" xmlns:xlink="http://www.w3.org/1999/xlink">
<g id="graph0" class="graph" transform="scale(1.52778 1.52778) rotate(0) translate(7.2 448.2)">
<polygon fill="white" stroke="none" points="-7.2,7.2 -7.2,-448.2 576.92,-448.2 576.92,7.2 -7.2,7.2"/>
<g id="clust1" class="cluster">
<title>cluster_legend</title>
<path fill="none" stroke="#d9d9d9" d="M20,-361C20,-361 380.47,-361 380.47,-361 386.47,-361 392.47,-367 392.47,-373 392.47,-373 392.47,-421 392.47,-421 392.47,-427 386.47,-433 380.47,-433 380.47,-433 20,-433 20,-433 14,-433 8,-427 8,-421 8,-421 8,-373 8,-373 8,-367 14,-361 20,-361"/>
<text xml:space="preserve" text-anchor="middle" x="200.24" y="-419.5" font-family="Arial" font-size="10.00">Leyenda</text>
</g>
<!-- Gestor aire -->
<g id="node1" class="node">
<title>Gestor aire</title>
<path fill="#eef3ff" stroke="#7aa6ff" stroke-width="1.2" d="M74.75,-225C74.75,-225 34.75,-225 34.75,-225 28.75,-225 22.75,-219 22.75,-213 22.75,-213 22.75,-201 22.75,-201 22.75,-195 28.75,-189 34.75,-189 34.75,-189 74.75,-189 74.75,-189 80.75,-189 86.75,-195 86.75,-201 86.75,-201 86.75,-213 86.75,-213 86.75,-219 80.75,-225 74.75,-225"/>
<text xml:space="preserve" text-anchor="middle" x="54.75" y="-203.5" font-family="Arial" font-size="10.00">Gestor aire</text>
</g>
<!-- Visualizador calidad de aire -->
<g id="node2" class="node">
<title>Visualizador calidad de aire</title>
<path fill="#eef3ff" stroke="#7aa6ff" stroke-width="1.2" d="M310.99,-340C310.99,-340 255.99,-340 255.99,-340 249.99,-340 243.99,-334 243.99,-328 243.99,-328 243.99,-316 243.99,-316 243.99,-310 249.99,-304 255.99,-304 255.99,-304 310.99,-304 310.99,-304 316.99,-304 322.99,-310 322.99,-316 322.99,-316 322.99,-328 322.99,-328 322.99,-334 316.99,-340 310.99,-340"/>
<text xml:space="preserve" text-anchor="middle" x="283.49" y="-324.5" font-family="Arial" font-size="10.00">Visualizador</text>
<text xml:space="preserve" text-anchor="middle" x="283.49" y="-312.5" font-family="Arial" font-size="10.00">calidad de aire</text>
</g>
<!-- Gestor aire&#45;&gt;Visualizador calidad de aire -->
<g id="edge1" class="edge">
<title>Gestor aire&#45;&gt;Visualizador calidad de aire</title>
<path fill="none" stroke="#4d4d4d" stroke-width="1.2" d="M87.34,-225.07C96.42,-230.24 106.34,-235.86 115.5,-241 145.17,-257.63 152.01,-262.91 182.5,-278 199.44,-286.38 218.33,-294.9 235.1,-302.19"/>
<polygon fill="#4d4d4d" stroke="#4d4d4d" stroke-width="1.2" points="233.53,-304.56 241.99,-305.16 235.75,-299.42 233.53,-304.56"/>
<text xml:space="preserve" text-anchor="middle" x="138" y="-268.45" font-family="Arial" font-size="9.00">Obligatoria</text>
</g>
<!-- Turismo -->
<g id="node4" class="node">
<title>Turismo</title>
<path fill="#eef3ff" stroke="#7aa6ff" stroke-width="1.2" d="M298.49,-263C298.49,-263 268.49,-263 268.49,-263 262.49,-263 256.49,-257 256.49,-251 256.49,-251 256.49,-239 256.49,-239 256.49,-233 262.49,-227 268.49,-227 268.49,-227 298.49,-227 298.49,-227 304.49,-227 310.49,-233 310.49,-239 310.49,-239 310.49,-251 310.49,-251 310.49,-257 304.49,-263 298.49,-263"/>
<text xml:space="preserve" text-anchor="middle" x="283.49" y="-241.5" font-family="Arial" font-size="10.00">Turismo</text>
</g>
<!-- Gestor aire&#45;&gt;Turismo -->
<g id="edge2" class="edge">
<title>Gestor aire&#45;&gt;Turismo</title>
<path fill="none" stroke="#4d4d4d" stroke-width="1.2" d="M87.28,-212.28C129.13,-219.3 202.86,-231.66 246.74,-239.01"/>
<polygon fill="#4d4d4d" stroke="#4d4d4d" stroke-width="1.2" points="246.02,-241.73 254.37,-240.29 246.94,-236.2 246.02,-241.73"/>
<text xml:space="preserve" text-anchor="middle" x="138" y="-225.67" font-family="Arial" font-size="9.00">Obligatoria</text>
</g>
<!-- Deportes -->
<g id="node7" class="node">
<title>Deportes</title>
<path fill="#eef3ff" stroke="#7aa6ff" stroke-width="1.2" d="M299.36,-198C299.36,-198 267.61,-198 267.61,-198 261.61,-198 255.61,-192 255.61,-186 255.61,-186 255.61,-174 255.61,-174 255.61,-168 261.61,-162 267.61,-162 267.61,-162 299.36,-162 299.36,-162 305.36,-162 311.36,-168 311.36,-174 311.36,-174 311.36,-186 311.36,-186 311.36,-192 305.36,-198 299.36,-198"/>
<text xml:space="preserve" text-anchor="middle" x="283.49" y="-176.5" font-family="Arial" font-size="10.00">Deportes</text>
</g>
<!-- Gestor aire&#45;&gt;Deportes -->
<g id="edge3" class="edge">
<title>Gestor aire&#45;&gt;Deportes</title>
<path fill="none" stroke="#4d4d4d" stroke-width="1.2" d="M87.22,-199.01C96.3,-196.95 106.25,-194.91 115.5,-193.5 159.99,-186.71 211.7,-183.2 245.65,-181.48"/>
<polygon fill="#4d4d4d" stroke="#4d4d4d" stroke-width="1.2" points="245.49,-184.29 253.35,-181.11 245.22,-178.7 245.49,-184.29"/>
<text xml:space="preserve" text-anchor="middle" x="138" y="-195.45" font-family="Arial" font-size="9.00">Opcional</text>
</g>
<!-- Entretenimiento -->
<g id="node8" class="node">
<title>Entretenimiento</title>
<path fill="#eef3ff" stroke="#7aa6ff" stroke-width="1.2" d="M313.61,-111C313.61,-111 253.36,-111 253.36,-111 247.36,-111 241.36,-105 241.36,-99 241.36,-99 241.36,-87 241.36,-87 241.36,-81 247.36,-75 253.36,-75 253.36,-75 313.61,-75 313.61,-75 319.61,-75 325.61,-81 325.61,-87 325.61,-87 325.61,-99 325.61,-99 325.61,-105 319.61,-111 313.61,-111"/>
<text xml:space="preserve" text-anchor="middle" x="283.49" y="-89.5" font-family="Arial" font-size="10.00">Entretenimiento</text>
</g>
<!-- Gestor aire&#45;&gt;Entretenimiento -->
<g id="edge4" class="edge">
<title>Gestor aire&#45;&gt;Entretenimiento</title>
<path fill="none" stroke="#4d4d4d" stroke-width="1.2" d="M84.54,-188.5C94.24,-182.52 105.21,-176.01 115.5,-170.5 153.91,-149.94 198.77,-129.3 232.31,-114.5"/>
<polygon fill="#4d4d4d" stroke="#4d4d4d" stroke-width="1.2" points="233.15,-117.18 239.35,-111.4 230.9,-112.06 233.15,-117.18"/>
<text xml:space="preserve" text-anchor="middle" x="138" y="-172.45" font-family="Arial" font-size="9.00">Opcional</text>
</g>
<!-- Visualizador restriccion uso lena -->
<g id="node3" class="node">
<title>Visualizador restriccion uso lena</title>
<path fill="#eef3ff" stroke="#7aa6ff" stroke-width="1.2" d="M546.1,-400C546.1,-400 490.35,-400 490.35,-400 484.35,-400 478.35,-394 478.35,-388 478.35,-388 478.35,-368 478.35,-368 478.35,-362 484.35,-356 490.35,-356 490.35,-356 546.1,-356 546.1,-356 552.1,-356 558.1,-362 558.1,-368 558.1,-368 558.1,-388 558.1,-388 558.1,-394 552.1,-400 546.1,-400"/>
<text xml:space="preserve" text-anchor="middle" x="518.22" y="-386.5" font-family="Arial" font-size="10.00">Visualizador</text>
<text xml:space="preserve" text-anchor="middle" x="518.22" y="-374.5" font-family="Arial" font-size="10.00">restriccion uso</text>
<text xml:space="preserve" text-anchor="middle" x="518.22" y="-362.5" font-family="Arial" font-size="10.00">lena</text>
</g>
<!-- Visualizador calidad de aire&#45;&gt;Visualizador restriccion uso lena -->
<g id="edge5" class="edge">
<title>Visualizador calidad de aire&#45;&gt;Visualizador restriccion uso lena</title>
<path fill="none" stroke="#4d4d4d" stroke-width="1.2" d="M323.44,-331.37C363.26,-340.95 425.22,-355.86 468.32,-366.23"/>
<polygon fill="#4d4d4d" stroke="#4d4d4d" stroke-width="1.2" points="467.55,-368.93 475.99,-368.08 468.86,-363.48 467.55,-368.93"/>
<text xml:space="preserve" text-anchor="middle" x="425.6" y="-361.84" font-family="Arial" font-size="9.00">Opcional</text>
</g>
<!-- Ambientes cerrados -->
<g id="node5" class="node">
<title>Ambientes cerrados</title>
<path fill="#eef3ff" stroke="#7aa6ff" stroke-width="1.2" d="M557.72,-298C557.72,-298 478.72,-298 478.72,-298 472.72,-298 466.72,-292 466.72,-286 466.72,-286 466.72,-274 466.72,-274 466.72,-268 472.72,-262 478.72,-262 478.72,-262 557.72,-262 557.72,-262 563.72,-262 569.72,-268 569.72,-274 569.72,-274 569.72,-286 569.72,-286 569.72,-292 563.72,-298 557.72,-298"/>
<text xml:space="preserve" text-anchor="middle" x="518.22" y="-276.5" font-family="Arial" font-size="10.00">Ambientes cerrados</text>
</g>
<!-- Turismo&#45;&gt;Ambientes cerrados -->
<g id="edge6" class="edge">
<title>Turismo&#45;&gt;Ambientes cerrados</title>
<path fill="none" stroke="#4d4d4d" stroke-width="1.2" d="M310.73,-248.95C345.88,-254.23 409.28,-263.77 456.59,-270.88"/>
<polygon fill="#4d4d4d" stroke="#4d4d4d" stroke-width="1.2" points="456,-273.62 464.33,-272.05 456.84,-268.09 456,-273.62"/>
<text xml:space="preserve" text-anchor="middle" x="425.6" y="-270.63" font-family="Arial" font-size="9.00">XOR</text>
</g>
<!-- Ambientes abiertos -->
<g id="node6" class="node">
<title>Ambientes abiertos</title>
<path fill="#eef3ff" stroke="#7aa6ff" stroke-width="1.2" d="M556.22,-233C556.22,-233 480.22,-233 480.22,-233 474.22,-233 468.22,-227 468.22,-221 468.22,-221 468.22,-209 468.22,-209 468.22,-203 474.22,-197 480.22,-197 480.22,-197 556.22,-197 556.22,-197 562.22,-197 568.22,-203 568.22,-209 568.22,-209 568.22,-221 568.22,-221 568.22,-227 562.22,-233 556.22,-233"/>
<text xml:space="preserve" text-anchor="middle" x="518.22" y="-211.5" font-family="Arial" font-size="10.00">Ambientes abiertos</text>
</g>
<!-- Turismo&#45;&gt;Ambientes abiertos -->
<g id="edge7" class="edge">
<title>Turismo&#45;&gt;Ambientes abiertos</title>
<path fill="none" stroke="#4d4d4d" stroke-width="1.2" d="M310.73,-241.62C346.32,-237.03 410.89,-228.71 458.38,-222.58"/>
<polygon fill="#4d4d4d" stroke="#4d4d4d" stroke-width="1.2" points="458.56,-225.39 466.14,-221.59 457.84,-219.83 458.56,-225.39"/>
<text xml:space="preserve" text-anchor="middle" x="425.6" y="-231.05" font-family="Arial" font-size="9.00">XOR</text>
</g>
<!-- Ambientes cerrados&#45;&gt;Visualizador restriccion uso lena -->
<g id="edge8" class="edge">
<title>Ambientes cerrados&#45;&gt;Visualizador restriccion uso lena</title>
<path fill="none" stroke="#6a3d9a" stroke-width="1.2" stroke-dasharray="5,2" d="M518.22,-298.43C518.22,-311.84 518.22,-330.33 518.22,-346.11"/>
<polygon fill="#6a3d9a" stroke="#6a3d9a" stroke-width="1.2" points="515.42,-345.7 518.22,-353.7 521.02,-345.7 515.42,-345.7"/>
<text xml:space="preserve" text-anchor="middle" x="509.97" y="-323.7" font-family="Arial" font-size="9.00">Requiere</text>
</g>
<!-- Ambientes abiertos&#45;&gt;Deportes -->
<g id="edge9" class="edge">
<title>Ambientes abiertos&#45;&gt;Deportes</title>
<path fill="none" stroke="#6a3d9a" stroke-width="1.2" stroke-dasharray="5,2" d="M467.92,-207.58C424.01,-200.98 360.75,-191.47 321.17,-185.52"/>
<polygon fill="#6a3d9a" stroke="#6a3d9a" stroke-width="1.2" points="321.76,-182.77 313.44,-184.35 320.93,-188.31 321.76,-182.77"/>
<text xml:space="preserve" text-anchor="middle" x="425.6" y="-205.63" font-family="Arial" font-size="9.00">Requiere</text>
</g>
<!-- Entretenimiento familiar -->
<g id="node9" class="node">
<title>Entretenimiento familiar</title>
<path fill="#eef3ff" stroke="#7aa6ff" stroke-width="1.2" d="M548.35,-166C548.35,-166 488.1,-166 488.1,-166 482.1,-166 476.1,-160 476.1,-154 476.1,-154 476.1,-142 476.1,-142 476.1,-136 482.1,-130 488.1,-130 488.1,-130 548.35,-130 548.35,-130 554.35,-130 560.35,-136 560.35,-142 560.35,-142 560.35,-154 560.35,-154 560.35,-160 554.35,-166 548.35,-166"/>
<text xml:space="preserve" text-anchor="middle" x="518.22" y="-150.5" font-family="Arial" font-size="10.00">Entretenimiento</text>
<text xml:space="preserve" text-anchor="middle" x="518.22" y="-138.5" font-family="Arial" font-size="10.00">familiar</text>
</g>
<!-- Entretenimiento&#45;&gt;Entretenimiento familiar -->
<g id="edge10" class="edge">
<title>Entretenimiento&#45;&gt;Entretenimiento familiar</title>
<path fill="none" stroke="#4d4d4d" stroke-width="1.2" d="M326.1,-102.83C365.28,-112.09 424.06,-125.98 466.09,-135.92"/>
<polygon fill="#4d4d4d" stroke="#4d4d4d" stroke-width="1.2" points="465.39,-138.63 473.82,-137.74 466.68,-133.18 465.39,-138.63"/>
<text xml:space="preserve" text-anchor="middle" x="425.6" y="-132.16" font-family="Arial" font-size="9.00">OR</text>
</g>
<!-- Entretenimiento adulto -->
<g id="node10" class="node">
<title>Entretenimiento adulto</title>
<path fill="#eef3ff" stroke="#7aa6ff" stroke-width="1.2" d="M548.35,-101C548.35,-101 488.1,-101 488.1,-101 482.1,-101 476.1,-95 476.1,-89 476.1,-89 476.1,-77 476.1,-77 476.1,-71 482.1,-65 488.1,-65 488.1,-65 548.35,-65 548.35,-65 554.35,-65 560.35,-71 560.35,-77 560.35,-77 560.35,-89 560.35,-89 560.35,-95 554.35,-101 548.35,-101"/>
<text xml:space="preserve" text-anchor="middle" x="518.22" y="-85.5" font-family="Arial" font-size="10.00">Entretenimiento</text>
<text xml:space="preserve" text-anchor="middle" x="518.22" y="-73.5" font-family="Arial" font-size="10.00">adulto</text>
</g>
<!-- Entretenimiento&#45;&gt;Entretenimiento adulto -->
<g id="edge11" class="edge">
<title>Entretenimiento&#45;&gt;Entretenimiento adulto</title>
<path fill="none" stroke="#4d4d4d" stroke-width="1.2" d="M326.1,-91.21C365.19,-89.53 423.82,-87.01 465.82,-85.21"/>
<polygon fill="#4d4d4d" stroke="#4d4d4d" stroke-width="1.2" points="465.9,-88.01 473.77,-84.87 465.66,-82.41 465.9,-88.01"/>
<text xml:space="preserve" text-anchor="middle" x="425.6" y="-89.65" font-family="Arial" font-size="9.00">OR</text>
</g>
<!-- Entretenimiento tercera edad -->
<g id="node11" class="node">
<title>Entretenimiento tercera edad</title>
<path fill="#eef3ff" stroke="#7aa6ff" stroke-width="1.2" d="M548.35,-36C548.35,-36 488.1,-36 488.1,-36 482.1,-36 476.1,-30 476.1,-24 476.1,-24 476.1,-12 476.1,-12 476.1,-6 482.1,0 488.1,0 488.1,0 548.35,0 548.35,0 554.35,0 560.35,-6 560.35,-12 560.35,-12 560.35,-24 560.35,-24 560.35,-30 554.35,-36 548.35,-36"/>
<text xml:space="preserve" text-anchor="middle" x="518.22" y="-20.5" font-family="Arial" font-size="10.00">Entretenimiento</text>
<text xml:space="preserve" text-anchor="middle" x="518.22" y="-8.5" font-family="Arial" font-size="10.00">tercera edad</text>
</g>
<!-- Entretenimiento&#45;&gt;Entretenimiento tercera edad -->
<g id="edge12" class="edge">
<title>Entretenimiento&#45;&gt;Entretenimiento tercera edad</title>
<path fill="none" stroke="#4d4d4d" stroke-width="1.2" d="M326.1,-79.59C365.36,-66.94 424.31,-47.94 466.35,-34.39"/>
<polygon fill="#4d4d4d" stroke="#4d4d4d" stroke-width="1.2" points="467.1,-37.09 473.86,-31.98 465.38,-31.76 467.1,-37.09"/>
<text xml:space="preserve" text-anchor="middle" x="425.6" y="-55.2" font-family="Arial" font-size="9.00">OR</text>
</g>
<!-- L_F -->
<g id="node12" class="node">
<title>L_F</title>
<path fill="#eef3ff" stroke="#7aa6ff" stroke-width="1.2" d="M81.5,-405C81.5,-405 28,-405 28,-405 22,-405 16,-399 16,-393 16,-393 16,-381 16,-381 16,-375 22,-369 28,-369 28,-369 81.5,-369 81.5,-369 87.5,-369 93.5,-375 93.5,-381 93.5,-381 93.5,-393 93.5,-393 93.5,-399 87.5,-405 81.5,-405"/>
<text xml:space="preserve" text-anchor="middle" x="54.75" y="-383.5" font-family="Arial" font-size="10.00">Característica</text>
</g>
<!-- L_R -->
<g id="node13" class="node">
<title>L_R</title>
<polygon fill="#f1e4ff" stroke="#a47bdc" stroke-width="1.2" points="283.49,-405 182.5,-387 283.49,-369 384.47,-387 283.49,-405"/>
<text xml:space="preserve" text-anchor="middle" x="283.49" y="-383.5" font-family="Arial" font-size="10.00">Requiere (dependencia)</text>
</g>
<!-- L_F&#45;&gt;L_R -->
</g>
</svg>
