<?xml version="1.0" encoding="UTF-8" standalone="no"?>
<!DOCTYPE svg PUBLIC "-//W3C//DTD SVG 1.1//EN"
 "http://www.w3.org/Graphics/SVG/1.1/DTD/svg11.dtd">
<!-- Generated by graphviz version 2.43.0 (0)
 -->
<!-- Title: %3 Pages: 1 -->
<svg width="958pt" height="1175pt"
 viewBox="0.00 0.00 626.90 769.40" xmlns="http://www.w3.org/2000/svg" xmlns:xlink="http://www.w3.org/1999/xlink">
<g id="graph0" class="graph" transform="scale(1.53 1.53) rotate(0) translate(7.2 762.2)">
<title>%3</title>
<polygon fill="white" stroke="transparent" points="-7.2,7.2 -7.2,-762.2 619.7,-762.2 619.7,7.2 -7.2,7.2"/>
<g id="clust1" class="cluster">
<title>cluster_legend</title>
<path fill="none" stroke="#d9d9d9" d="M20,-676C20,-676 458.5,-676 458.5,-676 464.5,-676 470.5,-682 470.5,-688 470.5,-688 470.5,-735 470.5,-735 470.5,-741 464.5,-747 458.5,-747 458.5,-747 20,-747 20,-747 14,-747 8,-741 8,-735 8,-735 8,-688 8,-688 8,-682 14,-676 20,-676"/>
<text text-anchor="middle" x="239.25" y="-735" font-family="Arial" font-size="10.00">Leyenda</text>
</g>
<!-- Gestor aire -->
<g id="node1" class="node">
<title>Gestor aire</title>
<path fill="#33a02c" stroke="#33a02c" stroke-width="2.2" d="M63.5,-387C63.5,-387 22.5,-387 22.5,-387 16.5,-387 10.5,-381 10.5,-375 10.5,-375 10.5,-363 10.5,-363 10.5,-357 16.5,-351 22.5,-351 22.5,-351 63.5,-351 63.5,-351 69.5,-351 75.5,-357 75.5,-363 75.5,-363 75.5,-375 75.5,-375 75.5,-381 69.5,-387 63.5,-387"/>
<text text-anchor="middle" x="43" y="-366.5" font-family="Arial" font-size="10.00" fill="white">Gestor aire</text>
</g>
<!-- Visualizador calidad aire -->
<g id="node2" class="node">
<title>Visualizador calidad aire</title>
<path fill="#33a02c" stroke="#33a02c" stroke-width="2.2" d="M231,-588C231,-588 185,-588 185,-588 179,-588 173,-582 173,-576 173,-576 173,-564 173,-564 173,-558 179,-552 185,-552 185,-552 231,-552 231,-552 237,-552 243,-558 243,-564 243,-564 243,-576 243,-576 243,-582 237,-588 231,-588"/>
<text text-anchor="middle" x="208" y="-573" font-family="Arial" font-size="10.00" fill="white">Visualizador</text>
<text text-anchor="middle" x="208" y="-562" font-family="Arial" font-size="10.00" fill="white">calidad aire</text>
</g>
<!-- Gestor aire&#45;&gt;Visualizador calidad aire -->
<g id="edge1" class="edge">
<title>Gestor aire&#45;&gt;Visualizador calidad aire</title>
<path fill="none" stroke="#4d4d4d" stroke-width="1.2" d="M58.75,-387.19C88.15,-423.44 154.05,-504.7 187.18,-545.56"/>
<polygon fill="#4d4d4d" stroke="#4d4d4d" stroke-width="1.2" points="185.18,-547.54 192.4,-551.99 189.53,-544.02 185.18,-547.54"/>
<text text-anchor="middle" x="120.5" y="-490.8" font-family="Arial" font-size="9.00">Obligatoria</text>
</g>
<!-- Turismo -->
<g id="node4" class="node">
<title>Turismo</title>
<path fill="#33a02c" stroke="#33a02c" stroke-width="2.2" d="M223,-469C223,-469 193,-469 193,-469 187,-469 181,-463 181,-457 181,-457 181,-445 181,-445 181,-439 187,-433 193,-433 193,-433 223,-433 223,-433 229,-433 235,-439 235,-445 235,-445 235,-457 235,-457 235,-463 229,-469 223,-469"/>
<text text-anchor="middle" x="208" y="-448.5" font-family="Arial" font-size="10.00" fill="white">Turismo</text>
</g>
<!-- Gestor aire&#45;&gt;Turismo -->
<g id="edge2" class="edge">
<title>Gestor aire&#45;&gt;Turismo</title>
<path fill="none" stroke="#4d4d4d" stroke-width="1.2" d="M75.81,-385.01C103.97,-399.17 144.91,-419.76 173.54,-434.17"/>
<polygon fill="#4d4d4d" stroke="#4d4d4d" stroke-width="1.2" points="172.5,-436.78 180.91,-437.87 175.02,-431.78 172.5,-436.78"/>
<text text-anchor="middle" x="120.5" y="-420.8" font-family="Arial" font-size="9.00">Obligatoria</text>
</g>
<!-- Deportes -->
<g id="node7" class="node">
<title>Deportes</title>
<path fill="#e31a1c" stroke="#e31a1c" stroke-width="1.2" d="M224,-387C224,-387 192,-387 192,-387 186,-387 180,-381 180,-375 180,-375 180,-363 180,-363 180,-357 186,-351 192,-351 192,-351 224,-351 224,-351 230,-351 236,-357 236,-363 236,-363 236,-375 236,-375 236,-381 230,-387 224,-387"/>
<text text-anchor="middle" x="208" y="-366.5" font-family="Arial" font-size="10.00" fill="white">Deportes</text>
</g>
<!-- Gestor aire&#45;&gt;Deportes -->
<g id="edge3" class="edge">
<title>Gestor aire&#45;&gt;Deportes</title>
<path fill="none" stroke="#4d4d4d" stroke-width="1.2" d="M75.81,-369C103.39,-369 143.23,-369 171.77,-369"/>
<polygon fill="#4d4d4d" stroke="#4d4d4d" stroke-width="1.2" points="171.86,-371.8 179.86,-369 171.86,-366.2 171.86,-371.8"/>
<text text-anchor="middle" x="120.5" y="-371.8" font-family="Arial" font-size="9.00">Opcional</text>
</g>
<!-- Entretenimiento -->
<g id="node8" class="node">
<title>Entretenimiento</title>
<path fill="#33a02c" stroke="#33a02c" stroke-width="2.2" d="M238.5,-312C238.5,-312 177.5,-312 177.5,-312 171.5,-312 165.5,-306 165.5,-300 165.5,-300 165.5,-288 165.5,-288 165.5,-282 171.5,-276 177.5,-276 177.5,-276 238.5,-276 238.5,-276 244.5,-276 250.5,-282 250.5,-288 250.5,-288 250.5,-300 250.5,-300 250.5,-306 244.5,-312 238.5,-312"/>
<text text-anchor="middle" x="208" y="-291.5" font-family="Arial" font-size="10.00" fill="white">Entretenimiento</text>
</g>
<!-- Gestor aire&#45;&gt;Entretenimiento -->
<g id="edge4" class="edge">
<title>Gestor aire&#45;&gt;Entretenimiento</title>
<path fill="none" stroke="#4d4d4d" stroke-width="1.2" d="M75.81,-354.36C99.87,-343.29 133.25,-327.93 160.32,-315.48"/>
<polygon fill="#4d4d4d" stroke="#4d4d4d" stroke-width="1.2" points="161.68,-317.93 167.78,-312.05 159.34,-312.85 161.68,-317.93"/>
<text text-anchor="middle" x="120.5" y="-345.8" font-family="Arial" font-size="9.00">Opcional</text>
</g>
<!-- HQC -->
<g id="node12" class="node">
<title>HQC</title>
<path fill="#33a02c" stroke="#33a02c" stroke-width="2.2" d="M223,-166C223,-166 193,-166 193,-166 187,-166 181,-160 181,-154 181,-154 181,-142 181,-142 181,-136 187,-130 193,-130 193,-130 223,-130 223,-130 229,-130 235,-136 235,-142 235,-142 235,-154 235,-154 235,-160 229,-166 223,-166"/>
<text text-anchor="middle" x="208" y="-145.5" font-family="Arial" font-size="10.00" fill="white">HQC</text>
</g>
<!-- Gestor aire&#45;&gt;HQC -->
<g id="edge5" class="edge">
<title>Gestor aire&#45;&gt;HQC</title>
<path fill="none" stroke="#4d4d4d" stroke-width="1.2" d="M57.34,-350.91C86.48,-311.4 155.88,-217.32 188.91,-172.52"/>
<polygon fill="#4d4d4d" stroke="#4d4d4d" stroke-width="1.2" points="191.21,-174.13 193.71,-166.03 186.7,-170.8 191.21,-174.13"/>
<text text-anchor="middle" x="120.5" y="-294.8" font-family="Arial" font-size="9.00">Opcional</text>
</g>
<!-- Visualizador restriccion uso lena -->
<g id="node3" class="node">
<title>Visualizador restriccion uso lena</title>
<path fill="#33a02c" stroke="#33a02c" stroke-width="2.2" d="M429.5,-654.5C429.5,-654.5 373.5,-654.5 373.5,-654.5 367.5,-654.5 361.5,-648.5 361.5,-642.5 361.5,-642.5 361.5,-625.5 361.5,-625.5 361.5,-619.5 367.5,-613.5 373.5,-613.5 373.5,-613.5 429.5,-613.5 429.5,-613.5 435.5,-613.5 441.5,-619.5 441.5,-625.5 441.5,-625.5 441.5,-642.5 441.5,-642.5 441.5,-648.5 435.5,-654.5 429.5,-654.5"/>
<text text-anchor="middle" x="401.5" y="-642.5" font-family="Arial" font-size="10.00" fill="white">Visualizador</text>
<text text-anchor="middle" x="401.5" y="-631.5" font-family="Arial" font-size="10.00" fill="white">restriccion uso</text>
<text text-anchor="middle" x="401.5" y="-620.5" font-family="Arial" font-size="10.00" fill="white">lena</text>
</g>
<!-- Visualizador calidad aire&#45;&gt;Visualizador restriccion uso lena -->
<g id="edge6" class="edge">
<title>Visualizador calidad aire&#45;&gt;Visualizador restriccion uso lena</title>
<path fill="none" stroke="#4d4d4d" stroke-width="1.2" d="M243.24,-581.44C273.91,-591.69 319.2,-606.83 353.3,-618.23"/>
<polygon fill="#4d4d4d" stroke="#4d4d4d" stroke-width="1.2" points="352.8,-621.01 361.28,-620.89 354.58,-615.7 352.8,-621.01"/>
<text text-anchor="middle" x="295.5" y="-608.8" font-family="Arial" font-size="9.00">Opcional</text>
</g>
<!-- Ambientes cerrados -->
<g id="node5" class="node">
<title>Ambientes cerrados</title>
<path fill="#33a02c" stroke="#33a02c" stroke-width="2.2" d="M441.5,-556C441.5,-556 361.5,-556 361.5,-556 355.5,-556 349.5,-550 349.5,-544 349.5,-544 349.5,-532 349.5,-532 349.5,-526 355.5,-520 361.5,-520 361.5,-520 441.5,-520 441.5,-520 447.5,-520 453.5,-526 453.5,-532 453.5,-532 453.5,-544 453.5,-544 453.5,-550 447.5,-556 441.5,-556"/>
<text text-anchor="middle" x="401.5" y="-535.5" font-family="Arial" font-size="10.00" fill="white">Ambientes cerrados</text>
</g>
<!-- Turismo&#45;&gt;Ambientes cerrados -->
<g id="edge7" class="edge">
<title>Turismo&#45;&gt;Ambientes cerrados</title>
<path fill="none" stroke="#4d4d4d" stroke-width="1.2" d="M235.2,-463.54C246.63,-468.97 260.2,-475.36 272.5,-481 298.54,-492.95 327.7,-505.96 351.61,-516.54"/>
<polygon fill="#4d4d4d" stroke="#4d4d4d" stroke-width="1.2" points="350.73,-519.21 359.18,-519.88 352.99,-514.09 350.73,-519.21"/>
<text text-anchor="middle" x="295.5" y="-504.8" font-family="Arial" font-size="9.00">XOR</text>
</g>
<!-- Ambientes abiertos -->
<g id="node6" class="node">
<title>Ambientes abiertos</title>
<path fill="#e31a1c" stroke="#e31a1c" stroke-width="1.2" d="M440,-491C440,-491 363,-491 363,-491 357,-491 351,-485 351,-479 351,-479 351,-467 351,-467 351,-461 357,-455 363,-455 363,-455 440,-455 440,-455 446,-455 452,-461 452,-467 452,-467 452,-479 452,-479 452,-485 446,-491 440,-491"/>
<text text-anchor="middle" x="401.5" y="-470.5" font-family="Arial" font-size="10.00" fill="white">Ambientes abiertos</text>
</g>
<!-- Turismo&#45;&gt;Ambientes abiertos -->
<g id="edge8" class="edge">
<title>Turismo&#45;&gt;Ambientes abiertos</title>
<path fill="none" stroke="#4d4d4d" stroke-width="1.2" d="M235.23,-454.01C262.84,-457.19 307.2,-462.28 343.02,-466.4"/>
<polygon fill="#4d4d4d" stroke="#4d4d4d" stroke-width="1.2" points="342.72,-469.18 350.98,-467.31 343.36,-463.62 342.72,-469.18"/>
<text text-anchor="middle" x="295.5" y="-466.8" font-family="Arial" font-size="9.00">XOR</text>
</g>
<!-- Optimizacion de rutas -->
<g id="node19" class="node">
<title>Optimizacion de rutas</title>
<path fill="#33a02c" stroke="#33a02c" stroke-width="2.2" d="M433,-426C433,-426 370,-426 370,-426 364,-426 358,-420 358,-414 358,-414 358,-402 358,-402 358,-396 364,-390 370,-390 370,-390 433,-390 433,-390 439,-390 445,-396 445,-402 445,-402 445,-414 445,-414 445,-420 439,-426 433,-426"/>
<text text-anchor="middle" x="401.5" y="-411" font-family="Arial" font-size="10.00" fill="white">Optimizacion de</text>
<text text-anchor="middle" x="401.5" y="-400" font-family="Arial" font-size="10.00" fill="white">rutas</text>
</g>
<!-- Turismo&#45;&gt;Optimizacion de rutas -->
<g id="edge9" class="edge">
<title>Turismo&#45;&gt;Optimizacion de rutas</title>
<path fill="none" stroke="#4d4d4d" stroke-width="1.2" d="M235.23,-445.11C264.56,-438.52 312.77,-427.7 349.58,-419.43"/>
<polygon fill="#4d4d4d" stroke="#4d4d4d" stroke-width="1.2" points="350.53,-422.09 357.72,-417.61 349.3,-416.63 350.53,-422.09"/>
<text text-anchor="middle" x="295.5" y="-438.8" font-family="Arial" font-size="9.00">Opcional</text>
</g>
<!-- Ambientes cerrados&#45;&gt;Visualizador restriccion uso lena -->
<g id="edge10" class="edge">
<title>Ambientes cerrados&#45;&gt;Visualizador restriccion uso lena</title>
<path fill="none" stroke="#6a3d9a" stroke-width="1.2" stroke-dasharray="5,2" d="M401.5,-556.06C401.5,-569.93 401.5,-589.37 401.5,-605.36"/>
<polygon fill="#6a3d9a" stroke="#6a3d9a" stroke-width="1.2" points="398.7,-605.36 401.5,-613.36 404.3,-605.36 398.7,-605.36"/>
<text text-anchor="middle" x="393.5" y="-582.55" font-family="Arial" font-size="9.00">Requiere</text>
</g>
<!-- Ambientes abiertos&#45;&gt;Deportes -->
<g id="edge11" class="edge">
<title>Ambientes abiertos&#45;&gt;Deportes</title>
<path fill="none" stroke="#6a3d9a" stroke-width="1.2" stroke-dasharray="5,2" d="M361.72,-454.93C354.28,-450.59 346.84,-445.57 340.5,-440 328.07,-429.09 331.68,-419.98 318.5,-410 296.5,-393.34 266.98,-382.81 244.13,-376.6"/>
<polygon fill="#6a3d9a" stroke="#6a3d9a" stroke-width="1.2" points="244.8,-373.88 236.35,-374.58 243.39,-379.3 244.8,-373.88"/>
<text text-anchor="middle" x="295.5" y="-412.8" font-family="Arial" font-size="9.00">Requiere</text>
</g>
<!-- Entretenimiento familiar -->
<g id="node9" class="node">
<title>Entretenimiento familiar</title>
<path fill="#e31a1c" stroke="#e31a1c" stroke-width="1.2" d="M432,-361C432,-361 371,-361 371,-361 365,-361 359,-355 359,-349 359,-349 359,-337 359,-337 359,-331 365,-325 371,-325 371,-325 432,-325 432,-325 438,-325 444,-331 444,-337 444,-337 444,-349 444,-349 444,-355 438,-361 432,-361"/>
<text text-anchor="middle" x="401.5" y="-346" font-family="Arial" font-size="10.00" fill="white">Entretenimiento</text>
<text text-anchor="middle" x="401.5" y="-335" font-family="Arial" font-size="10.00" fill="white">familiar</text>
</g>
<!-- Entretenimiento&#45;&gt;Entretenimiento familiar -->
<g id="edge12" class="edge">
<title>Entretenimiento&#45;&gt;Entretenimiento familiar</title>
<path fill="none" stroke="#4d4d4d" stroke-width="1.2" d="M250.55,-304.63C279.94,-312.15 319.48,-322.27 350.58,-330.23"/>
<polygon fill="#4d4d4d" stroke="#4d4d4d" stroke-width="1.2" points="350.25,-333.03 358.7,-332.3 351.64,-327.61 350.25,-333.03"/>
<text text-anchor="middle" x="295.5" y="-324.8" font-family="Arial" font-size="9.00">OR</text>
</g>
<!-- Entretenimiento adulto -->
<g id="node10" class="node">
<title>Entretenimiento adulto</title>
<path fill="#e31a1c" stroke="#e31a1c" stroke-width="1.2" d="M432,-296C432,-296 371,-296 371,-296 365,-296 359,-290 359,-284 359,-284 359,-272 359,-272 359,-266 365,-260 371,-260 371,-260 432,-260 432,-260 438,-260 444,-266 444,-272 444,-272 444,-284 444,-284 444,-290 438,-296 432,-296"/>
<text text-anchor="middle" x="401.5" y="-281" font-family="Arial" font-size="10.00" fill="white">Entretenimiento</text>
<text text-anchor="middle" x="401.5" y="-270" font-family="Arial" font-size="10.00" fill="white">adulto</text>
</g>
<!-- Entretenimiento&#45;&gt;Entretenimiento adulto -->
<g id="edge13" class="edge">
<title>Entretenimiento&#45;&gt;Entretenimiento adulto</title>
<path fill="none" stroke="#4d4d4d" stroke-width="1.2" d="M250.55,-290.53C279.94,-288.07 319.48,-284.77 350.58,-282.17"/>
<polygon fill="#4d4d4d" stroke="#4d4d4d" stroke-width="1.2" points="350.96,-284.95 358.7,-281.49 350.49,-279.37 350.96,-284.95"/>
<text text-anchor="middle" x="295.5" y="-291.8" font-family="Arial" font-size="9.00">OR</text>
</g>
<!-- Entretenimiento tercera edad -->
<g id="node11" class="node">
<title>Entretenimiento tercera edad</title>
<path fill="#33a02c" stroke="#33a02c" stroke-width="2.2" d="M432,-231C432,-231 371,-231 371,-231 365,-231 359,-225 359,-219 359,-219 359,-207 359,-207 359,-201 365,-195 371,-195 371,-195 432,-195 432,-195 438,-195 444,-201 444,-207 444,-207 444,-219 444,-219 444,-225 438,-231 432,-231"/>
<text text-anchor="middle" x="401.5" y="-216" font-family="Arial" font-size="10.00" fill="white">Entretenimiento</text>
<text text-anchor="middle" x="401.5" y="-205" font-family="Arial" font-size="10.00" fill="white">tercera edad</text>
</g>
<!-- Entretenimiento&#45;&gt;Entretenimiento tercera edad -->
<g id="edge14" class="edge">
<title>Entretenimiento&#45;&gt;Entretenimiento tercera edad</title>
<path fill="none" stroke="#4d4d4d" stroke-width="1.2" d="M250.55,-276.42C280.06,-263.94 319.81,-247.13 350.97,-233.95"/>
<polygon fill="#4d4d4d" stroke="#4d4d4d" stroke-width="1.2" points="352.42,-236.38 358.7,-230.68 350.24,-231.22 352.42,-236.38"/>
<text text-anchor="middle" x="295.5" y="-268.8" font-family="Arial" font-size="9.00">OR</text>
</g>
<!-- Backend -->
<g id="node13" class="node">
<title>Backend</title>
<path fill="#33a02c" stroke="#33a02c" stroke-width="2.2" d="M417,-166C417,-166 386,-166 386,-166 380,-166 374,-160 374,-154 374,-154 374,-142 374,-142 374,-136 380,-130 386,-130 386,-130 417,-130 417,-130 423,-130 429,-136 429,-142 429,-142 429,-154 429,-154 429,-160 423,-166 417,-166"/>
<text text-anchor="middle" x="401.5" y="-145.5" font-family="Arial" font-size="10.00" fill="white">Backend</text>
</g>
<!-- HQC&#45;&gt;Backend -->
<g id="edge15" class="edge">
<title>HQC&#45;&gt;Backend</title>
<path fill="none" stroke="#4d4d4d" stroke-width="1.2" d="M235.23,-148C269.13,-148 328.26,-148 365.84,-148"/>
<polygon fill="#4d4d4d" stroke="#4d4d4d" stroke-width="1.2" points="365.98,-150.8 373.98,-148 365.98,-145.2 365.98,-150.8"/>
<text text-anchor="middle" x="295.5" y="-150.8" font-family="Arial" font-size="9.00">Obligatoria</text>
</g>
<!-- Algoritmo -->
<g id="node14" class="node">
<title>Algoritmo</title>
<path fill="#33a02c" stroke="#33a02c" stroke-width="2.2" d="M418.5,-101C418.5,-101 384.5,-101 384.5,-101 378.5,-101 372.5,-95 372.5,-89 372.5,-89 372.5,-77 372.5,-77 372.5,-71 378.5,-65 384.5,-65 384.5,-65 418.5,-65 418.5,-65 424.5,-65 430.5,-71 430.5,-77 430.5,-77 430.5,-89 430.5,-89 430.5,-95 424.5,-101 418.5,-101"/>
<text text-anchor="middle" x="401.5" y="-80.5" font-family="Arial" font-size="10.00" fill="white">Algoritmo</text>
</g>
<!-- HQC&#45;&gt;Algoritmo -->
<g id="edge16" class="edge">
<title>HQC&#45;&gt;Algoritmo</title>
<path fill="none" stroke="#4d4d4d" stroke-width="1.2" d="M235.23,-139.1C268.79,-127.7 327.09,-107.92 364.72,-95.15"/>
<polygon fill="#4d4d4d" stroke="#4d4d4d" stroke-width="1.2" points="365.74,-97.76 372.42,-92.53 363.94,-92.45 365.74,-97.76"/>
<text text-anchor="middle" x="295.5" y="-128.8" font-family="Arial" font-size="9.00">Obligatoria</text>
</g>
<!-- Qiskit Simulator -->
<g id="node15" class="node">
<title>Qiskit Simulator</title>
<path fill="#e31a1c" stroke="#e31a1c" stroke-width="1.2" d="M600.5,-231C600.5,-231 538.5,-231 538.5,-231 532.5,-231 526.5,-225 526.5,-219 526.5,-219 526.5,-207 526.5,-207 526.5,-201 532.5,-195 538.5,-195 538.5,-195 600.5,-195 600.5,-195 606.5,-195 612.5,-201 612.5,-207 612.5,-207 612.5,-219 612.5,-219 612.5,-225 606.5,-231 600.5,-231"/>
<text text-anchor="middle" x="569.5" y="-210.5" font-family="Arial" font-size="10.00" fill="white">Qiskit Simulator</text>
</g>
<!-- Backend&#45;&gt;Qiskit Simulator -->
<g id="edge17" class="edge">
<title>Backend&#45;&gt;Qiskit Simulator</title>
<path fill="none" stroke="#4d4d4d" stroke-width="1.2" d="M429.17,-158.44C453.23,-167.87 489.25,-181.97 518.64,-193.48"/>
<polygon fill="#4d4d4d" stroke="#4d4d4d" stroke-width="1.2" points="517.88,-196.18 526.35,-196.49 519.92,-190.97 517.88,-196.18"/>
<text text-anchor="middle" x="494.5" y="-189.8" font-family="Arial" font-size="9.00">XOR</text>
</g>
<!-- Cirq Simulator -->
<g id="node16" class="node">
<title>Cirq Simulator</title>
<path fill="#33a02c" stroke="#33a02c" stroke-width="2.2" d="M597,-166C597,-166 542,-166 542,-166 536,-166 530,-160 530,-154 530,-154 530,-142 530,-142 530,-136 536,-130 542,-130 542,-130 597,-130 597,-130 603,-130 609,-136 609,-142 609,-142 609,-154 609,-154 609,-160 603,-166 597,-166"/>
<text text-anchor="middle" x="569.5" y="-145.5" font-family="Arial" font-size="10.00" fill="white">Cirq Simulator</text>
</g>
<!-- Backend&#45;&gt;Cirq Simulator -->
<g id="edge18" class="edge">
<title>Backend&#45;&gt;Cirq Simulator</title>
<path fill="none" stroke="#4d4d4d" stroke-width="1.2" d="M429.17,-148C454.05,-148 491.72,-148 521.62,-148"/>
<polygon fill="#4d4d4d" stroke="#4d4d4d" stroke-width="1.2" points="521.83,-150.8 529.83,-148 521.83,-145.2 521.83,-150.8"/>
<text text-anchor="middle" x="494.5" y="-150.8" font-family="Arial" font-size="9.00">XOR</text>
</g>
<!-- QAOA -->
<g id="node17" class="node">
<title>QAOA</title>
<path fill="#33a02c" stroke="#33a02c" stroke-width="2.2" d="M584.5,-101C584.5,-101 554.5,-101 554.5,-101 548.5,-101 542.5,-95 542.5,-89 542.5,-89 542.5,-77 542.5,-77 542.5,-71 548.5,-65 554.5,-65 554.5,-65 584.5,-65 584.5,-65 590.5,-65 596.5,-71 596.5,-77 596.5,-77 596.5,-89 596.5,-89 596.5,-95 590.5,-101 584.5,-101"/>
<text text-anchor="middle" x="569.5" y="-80.5" font-family="Arial" font-size="10.00" fill="white">QAOA</text>
</g>
<!-- Algoritmo&#45;&gt;QAOA -->
<g id="edge19" class="edge">
<title>Algoritmo&#45;&gt;QAOA</title>
<path fill="none" stroke="#4d4d4d" stroke-width="1.2" d="M430.66,-83C459.24,-83 503.52,-83 534.14,-83"/>
<polygon fill="#4d4d4d" stroke="#4d4d4d" stroke-width="1.2" points="534.39,-85.8 542.39,-83 534.39,-80.2 534.39,-85.8"/>
<text text-anchor="middle" x="494.5" y="-85.8" font-family="Arial" font-size="9.00">XOR</text>
</g>
<!-- VQE -->
<g id="node18" class="node">
<title>VQE</title>
<path fill="#e31a1c" stroke="#e31a1c" stroke-width="1.2" d="M584.5,-36C584.5,-36 554.5,-36 554.5,-36 548.5,-36 542.5,-30 542.5,-24 542.5,-24 542.5,-12 542.5,-12 542.5,-6 548.5,0 554.5,0 554.5,0 584.5,0 584.5,0 590.5,0 596.5,-6 596.5,-12 596.5,-12 596.5,-24 596.5,-24 596.5,-30 590.5,-36 584.5,-36"/>
<text text-anchor="middle" x="569.5" y="-15.5" font-family="Arial" font-size="10.00" fill="white">VQE</text>
</g>
<!-- Algoritmo&#45;&gt;VQE -->
<g id="edge20" class="edge">
<title>Algoritmo&#45;&gt;VQE</title>
<path fill="none" stroke="#4d4d4d" stroke-width="1.2" d="M430.66,-71.97C459.48,-60.69 504.28,-43.15 534.92,-31.15"/>
<polygon fill="#4d4d4d" stroke="#4d4d4d" stroke-width="1.2" points="535.97,-33.75 542.39,-28.22 533.92,-28.53 535.97,-33.75"/>
<text text-anchor="middle" x="494.5" y="-53.8" font-family="Arial" font-size="9.00">XOR</text>
</g>
<!-- Optimizacion de rutas&#45;&gt;HQC -->
<g id="edge21" class="edge">
<title>Optimizacion de rutas&#45;&gt;HQC</title>
<path fill="none" stroke="#6a3d9a" stroke-width="1.2" stroke-dasharray="5,2" d="M357.74,-391.54C350.99,-387.14 344.82,-381.69 340.5,-375 306.65,-322.56 364.33,-137.37 318.5,-95 292.77,-71.21 254.39,-100.53 230.57,-124.1"/>
<polygon fill="#6a3d9a" stroke="#6a3d9a" stroke-width="1.2" points="228.45,-122.27 224.84,-129.94 232.44,-126.19 228.45,-122.27"/>
<text text-anchor="middle" x="295.5" y="-97.8" font-family="Arial" font-size="9.00">Requiere</text>
</g>
<!-- L_ACT -->
<g id="node20" class="node">
<title>L_ACT</title>
<path fill="#33a02c" stroke="#33a02c" stroke-width="1.2" d="M58,-720C58,-720 28,-720 28,-720 22,-720 16,-714 16,-708 16,-708 16,-696 16,-696 16,-690 22,-684 28,-684 28,-684 58,-684 58,-684 64,-684 70,-690 70,-696 70,-696 70,-708 70,-708 70,-714 64,-720 58,-720"/>
<text text-anchor="middle" x="43" y="-699.5" font-family="Arial" font-size="10.00" fill="white">Activo</text>
</g>
<!-- L_INA -->
<g id="node21" class="node">
<title>L_INA</title>
<path fill="#e31a1c" stroke="#e31a1c" stroke-width="1.2" d="M223,-720C223,-720 193,-720 193,-720 187,-720 181,-714 181,-708 181,-708 181,-696 181,-696 181,-690 187,-684 193,-684 193,-684 223,-684 223,-684 229,-684 235,-690 235,-696 235,-696 235,-708 235,-708 235,-714 229,-720 223,-720"/>
<text text-anchor="middle" x="208" y="-699.5" font-family="Arial" font-size="10.00" fill="white">Inactivo</text>
</g>
<!-- L_ACT&#45;&gt;L_INA -->
<!-- L_EVI -->
<g id="node22" class="node">
<title>L_EVI</title>
<path fill="#984ea3" stroke="#984ea3" stroke-width="1.2" d="M450.5,-720C450.5,-720 352.5,-720 352.5,-720 346.5,-720 340.5,-714 340.5,-708 340.5,-708 340.5,-696 340.5,-696 340.5,-690 346.5,-684 352.5,-684 352.5,-684 450.5,-684 450.5,-684 456.5,-684 462.5,-690 462.5,-696 462.5,-696 462.5,-708 462.5,-708 462.5,-714 456.5,-720 450.5,-720"/>
<text text-anchor="middle" x="401.5" y="-699.5" font-family="Arial" font-size="10.00" fill="white">Con Evidencia Cuántica</text>
</g>
<!-- L_INA&#45;&gt;L_EVI -->
</g>
</svg>
